<svg width="20" height="20" viewBox="0 0 20 20" fill="none" xmlns="http://www.w3.org/2000/svg">
<path d="M10 13.3333V17.5" stroke="black" stroke-width="1.5" stroke-linecap="round" stroke-linejoin="round"/>
<path d="M13.3333 12.1992V17.5" stroke="black" stroke-width="1.5" stroke-linecap="round" stroke-linejoin="round"/>
<path d="M16.6667 8.88V17.5" stroke="black" stroke-width="1.5" stroke-linecap="round" stroke-linejoin="round"/>
<path d="M18.3333 2.5L11.1283 9.705C11.0896 9.7438 11.0436 9.77459 10.993 9.79559C10.9424 9.8166 10.8881 9.82741 10.8333 9.82741C10.7785 9.82741 10.7243 9.8166 10.6736 9.79559C10.623 9.77459 10.577 9.7438 10.5383 9.705L7.795 6.96167C7.71686 6.88355 7.6109 6.83967 7.50041 6.83967C7.38993 6.83967 7.28397 6.88355 7.20583 6.96167L1.66666 12.5" stroke="black" stroke-width="1.5" stroke-linecap="round" stroke-linejoin="round"/>
<path d="M3.33334 15.3858V17.5" stroke="black" stroke-width="1.5" stroke-linecap="round" stroke-linejoin="round"/>
<path d="M6.66666 12.2133V17.5" stroke="black" stroke-width="1.5" stroke-linecap="round" stroke-linejoin="round"/>
</svg>
