<svg width="20" height="20" viewBox="0 0 20 20" fill="none" xmlns="http://www.w3.org/2000/svg">
<g clip-path="url(#clip0_21_470)">
<path d="M15 6.66666C15 9.6775 11.7758 12.8575 10.5058 13.9958C10.3606 14.1068 10.1828 14.1669 10 14.1669C9.81719 14.1669 9.63945 14.1068 9.49417 13.9958C8.225 12.8575 5 9.6775 5 6.66666C5 5.34058 5.52678 4.06881 6.46447 3.13113C7.40215 2.19345 8.67392 1.66666 10 1.66666C11.3261 1.66666 12.5979 2.19345 13.5355 3.13113C14.4732 4.06881 15 5.34058 15 6.66666Z" stroke="black" stroke-width="1.5" stroke-linecap="round" stroke-linejoin="round"/>
<path d="M10 8.33333C10.9205 8.33333 11.6667 7.58714 11.6667 6.66667C11.6667 5.74619 10.9205 5 10 5C9.07954 5 8.33334 5.74619 8.33334 6.66667C8.33334 7.58714 9.07954 8.33333 10 8.33333Z" stroke="black" stroke-width="1.5" stroke-linecap="round" stroke-linejoin="round"/>
<path d="M7.26167 11.6667H4.17C3.99528 11.6667 3.82499 11.7217 3.68323 11.8239C3.54146 11.926 3.43539 12.0701 3.38 12.2358L1.71 17.2358C1.66814 17.3611 1.65664 17.4945 1.67646 17.6251C1.69629 17.7557 1.74686 17.8796 1.82402 17.9868C1.90118 18.094 2.0027 18.1813 2.12023 18.2416C2.23776 18.3018 2.36793 18.3333 2.5 18.3333H17.5C17.632 18.3332 17.762 18.3018 17.8795 18.2416C17.9969 18.1814 18.0984 18.0942 18.1755 17.9871C18.2527 17.88 18.3033 17.7561 18.3232 17.6257C18.3431 17.4952 18.3317 17.3619 18.29 17.2367L16.6233 12.2367C16.568 12.0707 16.4619 11.9263 16.32 11.824C16.178 11.7217 16.0075 11.6666 15.8325 11.6667H12.7392" stroke="black" stroke-width="1.5" stroke-linecap="round" stroke-linejoin="round"/>
</g>
<defs>
<clipPath id="clip0_21_470">
<rect width="20" height="20" fill="white"/>
</clipPath>
</defs>
</svg>
